<svg xmlns="http://www.w3.org/2000/svg" viewBox="0 0 400 400" fill="none">
  <defs>
    <linearGradient id="juiceBg" x1="0" y1="0" x2="0" y2="1">
      <stop offset="0%" stop-color="#2D5A27" stop-opacity="0.05"/>
      <stop offset="100%" stop-color="#2D5A27" stop-opacity="0.02"/>
    </linearGradient>
    <linearGradient id="juiceBottle" x1="0" y1="0" x2="0" y2="1">
      <stop offset="0%" stop-color="#f5f8f0"/>
      <stop offset="100%" stop-color="#e8f0e0"/>
    </linearGradient>
  </defs>
  <rect width="400" height="400" fill="url(#juiceBg)"/>
  <path d="M170 80 L230 80 L230 95 Q230 100 235 105 L235 300 Q235 315 220 315 L180 315 Q165 315 165 300 L165 105 Q165 100 170 95 L170 80 Z" fill="url(#juiceBottle)" stroke="#2D5A27" stroke-width="2" stroke-opacity="0.15"/>
  <rect x="176" y="60" width="48" height="24" rx="3" fill="#2D5A27" fill-opacity="0.06"/>
  <rect x="170" y="105" width="60" height="100" rx="4" fill="#2D5A27" fill-opacity="0.08"/>
  <text x="200" y="142" text-anchor="middle" font-family="system-ui" font-size="18" font-weight="800" fill="#2D5A27">JUICE</text>
  <text x="200" y="165" text-anchor="middle" font-family="system-ui" font-size="9" fill="#2D5A27" fill-opacity="0.6">FRESH & NATURAL</text>
  <line x1="182" y1="178" x2="218" y2="178" stroke="#2D5A27" stroke-opacity="0.15" stroke-width="1"/>
  <text x="200" y="195" text-anchor="middle" font-family="system-ui" font-size="8" fill="#2D5A27" fill-opacity="0.4">عصير طازج</text>
  <rect x="178" y="230" width="44" height="60" rx="8" fill="#2D5A27" fill-opacity="0.06"/>
  <text x="200" y="375" text-anchor="middle" font-family="system-ui" font-size="12" fill="#2D5A27" fill-opacity="0.35">WARA Fresh — Al Safat Dairy Co.</text>
</svg>