<svg xmlns="http://www.w3.org/2000/svg" viewBox="0 0 400 400" fill="none">
  <defs>
    <linearGradient id="labanBg" x1="0" y1="0" x2="0" y2="1">
      <stop offset="0%" stop-color="#2D5A27" stop-opacity="0.05"/>
      <stop offset="100%" stop-color="#2D5A27" stop-opacity="0.02"/>
    </linearGradient>
    <linearGradient id="bottle" x1="0" y1="0" x2="0" y2="1">
      <stop offset="0%" stop-color="#ffffff"/>
      <stop offset="100%" stop-color="#f0f5ea"/>
    </linearGradient>
    <linearGradient id="labanLabel" x1="0" y1="0" x2="0" y2="1">
      <stop offset="0%" stop-color="#3a7a33"/>
      <stop offset="100%" stop-color="#2D5A27"/>
    </linearGradient>
  </defs>
  <rect width="400" height="400" fill="url(#labanBg)"/>
  <path d="M175 70 L225 70 L225 85 Q225 90 220 95 L220 100 L230 100 Q235 100 235 105 L235 310 Q235 320 225 320 L175 320 Q165 320 165 310 L165 105 Q165 100 170 100 L180 100 L180 95 Q175 90 175 85 Z" fill="url(#bottle)" stroke="#2D5A27" stroke-width="2" stroke-opacity="0.15"/>
  <rect x="176" y="70" width="48" height="28" rx="4" fill="#2D5A27" fill-opacity="0.06"/>
  <rect x="182" y="73" width="10" height="22" rx="2" fill="#2D5A27" fill-opacity="0.08"/>
  <rect x="208" y="73" width="10" height="22" rx="2" fill="#2D5A27" fill-opacity="0.08"/>
  <rect x="170" y="115" width="60" height="100" rx="4" fill="url(#labanLabel)"/>
  <text x="200" y="155" text-anchor="middle" font-family="system-ui" font-size="20" font-weight="800" fill="#ffffff">LABAN</text>
  <text x="200" y="175" text-anchor="middle" font-family="system-ui" font-size="9" fill="#ffffff" fill-opacity="0.8">FRESH DRINK</text>
  <line x1="180" y1="188" x2="220" y2="188" stroke="#ffffff" stroke-opacity="0.3" stroke-width="1"/>
  <text x="200" y="205" text-anchor="middle" font-family="system-ui" font-size="8" fill="#ffffff" fill-opacity="0.7">ل</text>
  <rect x="175" y="240" width="50" height="2" rx="1" fill="#2D5A27" fill-opacity="0.08"/>
  <text x="200" y="375" text-anchor="middle" font-family="system-ui" font-size="12" fill="#2D5A27" fill-opacity="0.35">WARA Fresh — Al Safat Dairy Co.</text>
</svg>