<svg xmlns="http://www.w3.org/2000/svg" viewBox="0 0 400 400" fill="none">
  <defs>
    <linearGradient id="milkBg" x1="0" y1="0" x2="0" y2="1">
      <stop offset="0%" stop-color="#2D5A27" stop-opacity="0.05"/>
      <stop offset="100%" stop-color="#2D5A27" stop-opacity="0.02"/>
    </linearGradient>
    <linearGradient id="carton" x1="0" y1="0" x2="0" y2="1">
      <stop offset="0%" stop-color="#ffffff"/>
      <stop offset="100%" stop-color="#f0f5ea"/>
    </linearGradient>
    <linearGradient id="cap" x1="0" y1="0" x2="0" y2="1">
      <stop offset="0%" stop-color="#3a7a33"/>
      <stop offset="100%" stop-color="#2D5A27"/>
    </linearGradient>
  </defs>
  <rect width="400" height="400" fill="url(#milkBg)"/>
  <path d="M145 95 L255 95 L270 130 L270 295 Q270 310 255 310 L145 310 Q130 310 130 295 L130 130 Z" fill="url(#carton)" stroke="#2D5A27" stroke-width="2" stroke-opacity="0.15"/>
  <path d="M160 70 L240 70 L240 95 L160 95 Z" fill="#e8f0e0" stroke="#2D5A27" stroke-width="1.5" stroke-opacity="0.2"/>
  <line x1="200" y1="70" x2="200" y2="55" stroke="#2D5A27" stroke-opacity="0.15" stroke-width="2"/>
  <path d="M145 130 L270 130 L275 145 L140 145 Z" fill="url(#cap)"/>
  <rect x="155" y="150" width="90" height="8" rx="4" fill="#2D5A27" fill-opacity="0.1"/>
  <text x="200" y="200" text-anchor="middle" font-family="system-ui" font-size="24" font-weight="800" fill="#2D5A27">MILK</text>
  <text x="200" y="225" text-anchor="middle" font-family="system-ui" font-size="10" fill="#2D5A27" fill-opacity="0.6">FRESH FROM THE FARM</text>
  <line x1="165" y1="240" x2="235" y2="240" stroke="#2D5A27" stroke-opacity="0.1" stroke-width="1"/>
  <text x="200" y="260" text-anchor="middle" font-family="system-ui" font-size="9" fill="#2D5A27" fill-opacity="0.4">ت <tspan dx="5">Fresh & Pure</tspan></text>
  <rect x="170" y="275" width="60" height="2" rx="1" fill="#2D5A27" fill-opacity="0.08"/>
  <text x="200" y="375" text-anchor="middle" font-family="system-ui" font-size="12" fill="#2D5A27" fill-opacity="0.35">WARA Fresh — Al Safat Dairy Co.</text>
</svg>