<svg xmlns="http://www.w3.org/2000/svg" viewBox="0 0 400 400" fill="none">
  <defs>
    <linearGradient id="yogurtBg" x1="0" y1="0" x2="0" y2="1">
      <stop offset="0%" stop-color="#2D5A27" stop-opacity="0.05"/>
      <stop offset="100%" stop-color="#2D5A27" stop-opacity="0.02"/>
    </linearGradient>
    <linearGradient id="yogurtBody" x1="0" y1="0" x2="0" y2="1">
      <stop offset="0%" stop-color="#ffffff"/>
      <stop offset="100%" stop-color="#f0f5ea"/>
    </linearGradient>
    <linearGradient id="lid" x1="0" y1="0" x2="1" y2="1">
      <stop offset="0%" stop-color="#3a7a33"/>
      <stop offset="100%" stop-color="#2D5A27"/>
    </linearGradient>
  </defs>
  <rect width="400" height="400" fill="url(#yogurtBg)"/>
  <path d="M120 170 Q120 130 140 125 L260 125 Q280 130 280 170 L280 300 Q280 320 260 320 L140 320 Q120 320 120 300 Z" fill="url(#yogurtBody)" stroke="#2D5A27" stroke-width="2" stroke-opacity="0.15"/>
  <path d="M120 170 L280 170 L290 195 L110 195 Z" fill="url(#lid)"/>
  <ellipse cx="200" cy="130" rx="60" ry="10" fill="#2D5A27" fill-opacity="0.08"/>
  <text x="200" y="180" text-anchor="middle" font-family="system-ui" font-size="9" fill="#ffffff" fill-opacity="0.9">CREAMY &amp; DELICIOUS</text>
  <text x="200" y="230" text-anchor="middle" font-family="system-ui" font-size="26" font-weight="800" fill="#2D5A27">YOGURT</text>
  <line x1="160" y1="250" x2="240" y2="250" stroke="#2D5A27" stroke-opacity="0.1" stroke-width="1"/>
  <text x="200" y="270" text-anchor="middle" font-family="system-ui" font-size="9" fill="#2D5A27" fill-opacity="0.5">Fresh &amp; Natural</text>
  <text x="200" y="290" text-anchor="middle" font-family="system-ui" font-size="8" fill="#2D5A27" fill-opacity="0.35">زبادي طازج</text>
  <text x="200" y="375" text-anchor="middle" font-family="system-ui" font-size="12" fill="#2D5A27" fill-opacity="0.35">WARA Fresh — Al Safat Dairy Co.</text>
</svg>