<svg xmlns="http://www.w3.org/2000/svg" viewBox="0 0 800 600" fill="none">
  <rect width="800" height="600" fill="#f0f7ef"/>
  <rect x="250" y="320" width="300" height="200" rx="8" fill="#2D5A27" opacity="0.12"/>
  <polygon points="250,320 400,240 550,320" fill="#2D5A27" opacity="0.15"/>
  <rect x="280" y="340" width="30" height="50" rx="3" fill="#2D5A27" opacity="0.08"/>
  <rect x="370" y="340" width="60" height="80" rx="4" fill="#2D5A27" opacity="0.1"/>
  <rect x="470" y="340" width="50" height="60" rx="3" fill="#2D5A27" opacity="0.08"/>
  <rect x="375" y="360" width="20" height="25" rx="2" fill="#2D5A27" opacity="0.06"/>
  <rect x="405" y="360" width="20" height="25" rx="2" fill="#2D5A27" opacity="0.06"/>
  <circle cx="400" cy="430" r="40" fill="#2D5A27" opacity="0.06"/>
  <path d="M300 520 Q350 510 400 520 Q450 530 500 520" stroke="#2D5A27" stroke-width="2" fill="none" opacity="0.15"/>
  <circle cx="180" cy="380" r="12" fill="#2D5A27" opacity="0.1"/>
  <circle cx="620" cy="400" r="10" fill="#2D5A27" opacity="0.08"/>
  <circle cx="150" cy="420" r="8" fill="#2D5A27" opacity="0.07"/>
  <circle cx="650" cy="370" r="6" fill="#2D5A27" opacity="0.06"/>
  <text x="400" y="150" text-anchor="middle" font-family="system-ui" font-size="32" font-weight="700" fill="#2D5A27">Our Farm</text>
  <text x="400" y="185" text-anchor="middle" font-family="system-ui" font-size="16" fill="#2D5A27" opacity="0.6">Kuwaiti Dairy Since 1976</text>
</svg>
