<svg xmlns="http://www.w3.org/2000/svg" viewBox="0 0 800 600" fill="none">
  <rect width="800" height="600" fill="#f0f7ef"/>
  <path d="M200 450 Q200 200 400 180 Q600 200 600 450Z" fill="#2D5A27" opacity="0.08"/>
  <path d="M250 420 Q250 250 400 230 Q550 250 550 420Z" fill="#2D5A27" opacity="0.06"/>
  <rect x="320" y="340" width="160" height="180" rx="12" fill="#2D5A27" opacity="0.15"/>
  <rect x="345" y="360" width="110" height="30" rx="6" fill="#2D5A27" opacity="0.2"/>
  <rect x="345" y="400" width="110" height="6" rx="3" fill="#2D5A27" opacity="0.12"/>
  <rect x="345" y="415" width="110" height="6" rx="3" fill="#2D5A27" opacity="0.12"/>
  <rect x="345" y="430" width="110" height="6" rx="3" fill="#2D5A27" opacity="0.12"/>
  <rect x="345" y="445" width="110" height="6" rx="3" fill="#2D5A27" opacity="0.12"/>
  <rect x="345" y="460" width="80" height="6" rx="3" fill="#2D5A27" opacity="0.12"/>
  <rect x="365" y="490" width="70" height="20" rx="10" fill="#2D5A27"/>
  <circle cx="340" cy="420" r="60" fill="#2D5A27" opacity="0.06"/>
  <circle cx="460" cy="420" r="60" fill="#2D5A27" opacity="0.06"/>
  <path d="M350 520 Q320 530 300 540 Q280 550 260 540" stroke="#2D5A27" stroke-width="2" fill="none" opacity="0.2"/>
  <path d="M450 520 Q480 530 500 540 Q520 550 540 540" stroke="#2D5A27" stroke-width="2" fill="none" opacity="0.2"/>
  <circle cx="240" cy="180" r="8" fill="#2D5A27" opacity="0.15"/>
  <circle cx="560" cy="160" r="6" fill="#2D5A27" opacity="0.12"/>
  <circle cx="180" cy="280" r="5" fill="#2D5A27" opacity="0.1"/>
  <circle cx="620" cy="300" r="7" fill="#2D5A27" opacity="0.1"/>
  <text x="400" y="130" text-anchor="middle" font-family="system-ui" font-size="32" font-weight="700" fill="#2D5A27">Fresh Dairy</text>
  <text x="400" y="165" text-anchor="middle" font-family="system-ui" font-size="16" fill="#2D5A27" opacity="0.6">From Our Farm to Your Table</text>
</svg>
