<svg width="36" height="36" viewBox="0 0 36 36" fill="none" xmlns="http://www.w3.org/2000/svg">
  <circle cx="18" cy="18" r="17" fill="#2D5A27"/>
  <path d="M18 8c-4 0-7 3.5-7 8 0 3 1.5 5.5 3.5 7 .5.4 1 .8 1.5 1.2.5.4 1.2.8 2 1.2.8.3 1.5.6 2 .6s1.2-.3 2-.6c.8-.4 1.5-.8 2-1.2.5-.4 1-.8 1.5-1.2 2-1.5 3.5-4 3.5-7 0-4.5-3-8-7-8z" fill="white"/>
  <path d="M14 16h8M18 12v8" stroke="#2D5A27" stroke-width="2"/>
  <path d="M11 24c1 2 3.5 4 7 4s6-2 7-4" stroke="white" stroke-width="1.5" stroke-linecap="round" stroke-opacity="0.7"/>
</svg>
